<?xml version="1.0" standalone="no"?>
<!DOCTYPE svg PUBLIC "-//W3C//DTD SVG 1.1//EN" "http://www.w3.org/Graphics/SVG/1.1/DTD/svg11.dtd" >
<svg>
<metadata>
Created by FontForge 20110222 at Thu Aug 21 08:17:44 2014
 By Orthosie Webhosting
Belgacom
</metadata>
<defs>
<font id="Proximus-Bold" horiz-adv-x="600" >
  <font-face 
    font-family="Proximus Bold"
    font-weight="700"
    font-stretch="normal"
    units-per-em="1000"
    panose-1="0 0 8 0 0 0 0 0 0 0"
    ascent="800"
    descent="-200"
    x-height="500"
    cap-height="740"
    bbox="-97 -216 1598 1091.89"
    underline-thickness="50"
    underline-position="-50"
    stemh="115"
    stemv="140"
    unicode-range="U+0020-FB02"
  />
<missing-glyph horiz-adv-x="500" 
d="M0 0v700h500v-700h-500zM250 395l170 255h-340zM280 350l170 -255v510zM80 50h340l-170 255zM50 605v-510l170 255z" />
    <glyph glyph-name="f_f" unicode="ff" horiz-adv-x="822" 
d="M771 620h-72c-64 0 -94 -24 -94 -101v-19h155v-115h-155v-385h-140v385h-220v-385h-140v385h-80v115h80v24c0 117 58 216 234 216h72v-120h-72c-64 0 -94 -24 -94 -101v-19h220v24c0 117 58 216 234 216h72v-120z" />
    <glyph glyph-name="f_f_i" unicode="ffi" horiz-adv-x="1025" 
d="M895 595c-44 0 -80 36 -80 80s36 80 80 80s80 -36 80 -80s-36 -80 -80 -80zM965 500v-500h-140v385h-220v-385h-140v385h-220v-385h-140v385h-80v115h80v24c0 117 58 216 234 216h72v-120h-72c-64 0 -94 -24 -94 -101v-19h220v24c0 117 58 216 234 216h47v-120h-47
c-64 0 -94 -24 -94 -101v-19h360z" />
    <glyph glyph-name="f_f_l" unicode="ffl" horiz-adv-x="1120" 
d="M1100 0h-29c-157 0 -246 59 -246 232v388h-126c-64 0 -94 -24 -94 -101v-19h131v-115h-131v-385h-140v385h-220v-385h-140v385h-80v115h80v24c0 117 58 216 234 216h72v-120h-72c-64 0 -94 -24 -94 -101v-19h220v24c0 117 58 216 234 216h266v-519
c0 -77 31 -101 106 -101h29v-120z" />
    <glyph glyph-name="fi" unicode="fi" horiz-adv-x="665" 
d="M535 595c-44 0 -80 36 -80 80s36 80 80 80s80 -36 80 -80s-36 -80 -80 -80zM605 500v-500h-140v385h-220v-385h-140v385h-80v115h80v24c0 117 58 216 234 216h47v-120h-47c-64 0 -94 -24 -94 -101v-19h360z" />
    <glyph glyph-name="fl" unicode="fl" horiz-adv-x="760" 
d="M740 120v-120h-29c-157 0 -246 59 -246 232v388h-126c-64 0 -94 -24 -94 -101v-19h130v-115h-130v-385h-140v385h-80v115h80v24c0 117 58 216 234 216h266v-519c0 -77 31 -101 106 -101h29z" />
    <glyph glyph-name=".notdef" horiz-adv-x="500" 
d="M0 0v700h500v-700h-500zM250 395l170 255h-340zM280 350l170 -255v510zM80 50h340l-170 255zM50 605v-510l170 255z" />
    <glyph glyph-name="A" unicode="A" horiz-adv-x="760" 
d="M538 167h-316l-66 -167h-151l305 740h140l305 -740h-151zM491 285l-111 279l-111 -279h222z" />
    <glyph glyph-name="Aacute" unicode="&#xc1;" horiz-adv-x="760" 
d="M509 919c-34 -29 -160 -99 -199 -119l-22 26c27 34 117 146 152 175c24 21 53 39 85 1c31 -37 9 -63 -16 -83zM538 167h-316l-66 -167h-151l305 740h140l305 -740h-151zM491 285l-111 279l-111 -279h222z" />
    <glyph glyph-name="Acircumflex" unicode="&#xc2;" horiz-adv-x="760" 
d="M193 826l-40 57l197 103h60l197 -103l-40 -57l-186 71zM538 167h-316l-66 -167h-151l305 740h140l305 -740h-151zM491 285l-111 279l-111 -279h222z" />
    <glyph glyph-name="Adieresis" unicode="&#xc4;" horiz-adv-x="760" 
d="M255 835c-44 0 -80 36 -80 80s36 80 80 80s80 -36 80 -80s-36 -80 -80 -80zM505 835c-44 0 -80 36 -80 80s36 80 80 80s80 -36 80 -80s-36 -80 -80 -80zM538 167h-316l-66 -167h-151l305 740h140l305 -740h-151zM491 285l-111 279l-111 -279h222z" />
    <glyph glyph-name="Agrave" unicode="&#xc0;" horiz-adv-x="760" 
d="M251 919c-25 20 -47 46 -16 83c32 38 61 20 85 -1c35 -29 125 -141 152 -175l-22 -26c-39 20 -165 90 -199 119zM538 167h-316l-66 -167h-151l305 740h140l305 -740h-151zM491 285l-111 279l-111 -279h222z" />
    <glyph glyph-name="Aring" unicode="&#xc5;" horiz-adv-x="760" 
d="M381 820c-72 0 -130 58 -130 130c0 71 58 129 130 129c71 0 129 -58 129 -129c0 -72 -58 -130 -129 -130zM381 1003c-29 0 -52 -24 -52 -53c0 -30 23 -54 52 -54c28 0 51 24 51 54c0 29 -23 53 -51 53zM538 167h-316l-66 -167h-151l305 740h140l305 -740h-151zM491 285
l-111 279l-111 -279h222z" />
    <glyph glyph-name="Atilde" unicode="&#xc3;" horiz-adv-x="760" 
d="M289 878c-43 0 -74 -18 -93 -33l-44 56c38 38 88 69 136 69c57 0 133 -39 183 -39c43 0 74 18 93 33l44 -56c-38 -38 -88 -69 -136 -69c-57 0 -133 39 -183 39zM538 167h-316l-66 -167h-151l305 740h140l305 -740h-151zM491 285l-111 279l-111 -279h222z" />
    <glyph glyph-name="AE" unicode="&#xc6;" horiz-adv-x="1115" 
d="M1060 118v-118h-492v187h-290l-122 -187h-156l493 740h556v-118h-339v-180h324v-118h-324v-206h350zM568 305v328l-213 -328h213z" />
    <glyph glyph-name="B" unicode="B" horiz-adv-x="713" 
d="M591 386c57 -40 82 -102 82 -178c0 -138 -74 -208 -284 -208h-319v740h298c214 0 283 -67 283 -201c0 -58 -17 -113 -60 -153zM212 436h156c93 0 137 15 137 93c0 69 -36 93 -137 93h-156v-186zM212 118h177c93 0 138 20 138 100s-44 100 -138 100h-177v-200z" />
    <glyph glyph-name="C" unicode="C" horiz-adv-x="656" 
d="M407 755c106 0 182 -31 182 -31l-23 -115s-69 24 -145 24c-151 0 -228 -94 -228 -265c0 -166 73 -261 237 -261c87 0 163 27 163 27l23 -116s-86 -33 -197 -33c-242 0 -374 139 -374 383c0 249 137 387 362 387z" />
    <glyph glyph-name="Ccedilla" unicode="&#xc7;" horiz-adv-x="656" 
d="M419 -15l-9 -18c38 -10 63 -36 63 -76c0 -47 -37 -91 -111 -91c-46 0 -89 21 -105 38l27 52c20 -11 45 -18 63 -18c20 0 35 11 35 32c0 22 -19 34 -50 34l-8 10l22 42c-195 25 -301 160 -301 378c0 249 137 387 362 387c106 0 182 -31 182 -31l-23 -115s-69 24 -145 24
c-151 0 -228 -94 -228 -265c0 -166 73 -261 237 -261c87 0 163 27 163 27l23 -116s-86 -33 -197 -33z" />
    <glyph glyph-name="D" unicode="D" horiz-adv-x="781" 
d="M70 740h293c244 0 368 -118 368 -370c0 -253 -124 -370 -368 -370h-293v740zM212 118h151c153 0 220 70 220 252s-67 252 -220 252h-151v-504z" />
    <glyph glyph-name="Eth" unicode="&#xd0;" horiz-adv-x="801" 
d="M90 740h293c244 0 368 -118 368 -370c0 -253 -124 -370 -368 -370h-293v320h-70v115h70v305zM232 118h151c153 0 220 70 220 252s-67 252 -220 252h-151v-187h208v-115h-208v-202z" />
    <glyph glyph-name="E" unicode="E" horiz-adv-x="607" 
d="M552 118v-118h-492v740h481v-118h-339v-180h324v-118h-324v-206h350z" />
    <glyph glyph-name="Eacute" unicode="&#xc9;" horiz-adv-x="607" 
d="M432 919c-34 -29 -160 -99 -199 -119l-22 26c27 34 117 146 152 175c24 21 53 39 85 1c31 -37 9 -63 -16 -83zM552 118v-118h-492v740h481v-118h-339v-180h324v-118h-324v-206h350z" />
    <glyph glyph-name="Ecircumflex" unicode="&#xca;" horiz-adv-x="607" 
d="M116 826l-40 57l197 103h60l197 -103l-40 -57l-186 71zM552 118v-118h-492v740h481v-118h-339v-180h324v-118h-324v-206h350z" />
    <glyph glyph-name="Edieresis" unicode="&#xcb;" horiz-adv-x="607" 
d="M178 835c-44 0 -80 36 -80 80s36 80 80 80s80 -36 80 -80s-36 -80 -80 -80zM428 835c-44 0 -80 36 -80 80s36 80 80 80s80 -36 80 -80s-36 -80 -80 -80zM552 118v-118h-492v740h481v-118h-339v-180h324v-118h-324v-206h350z" />
    <glyph glyph-name="Egrave" unicode="&#xc8;" horiz-adv-x="607" 
d="M174 919c-25 20 -47 46 -16 83c32 38 61 20 85 -1c35 -29 125 -141 152 -175l-22 -26c-39 20 -165 90 -199 119zM552 118v-118h-492v740h481v-118h-339v-180h324v-118h-324v-206h350z" />
    <glyph glyph-name="F" unicode="F" horiz-adv-x="592" 
d="M212 622v-180h313v-118h-313v-324h-142v740h482v-118h-340z" />
    <glyph glyph-name="G" unicode="G" horiz-adv-x="764" 
d="M704 386v-340c-16 -6 -116 -61 -273 -61c-253 0 -381 133 -381 385s128 385 391 385c109 0 192 -31 192 -31l-23 -116s-69 25 -169 25c-172 0 -243 -81 -243 -263s71 -263 233 -263c53 0 99 8 131 15v146h-180v118h322z" />
    <glyph glyph-name="H" unicode="H" horiz-adv-x="745" 
d="M675 740v-740h-142v324h-321v-324h-142v740h142v-298h321v298h142z" />
    <glyph glyph-name="I" unicode="I" horiz-adv-x="262" 
d="M202 0h-142v740h142v-740z" />
    <glyph glyph-name="Iacute" unicode="&#xcd;" horiz-adv-x="262" 
d="M61 800l-22 26c27 34 117 146 152 175c24 21 53 39 85 1c31 -37 9 -63 -16 -83c-34 -29 -160 -99 -199 -119zM202 0h-142v740h142v-740z" />
    <glyph glyph-name="Icircumflex" unicode="&#xce;" horiz-adv-x="262" 
d="M132 897l-188 -71l-40 57l197 103h60l197 -103l-40 -57zM202 0h-142v740h142v-740z" />
    <glyph glyph-name="Idieresis" unicode="&#xcf;" horiz-adv-x="262" 
d="M6 995c44 0 80 -36 80 -80s-36 -80 -80 -80s-80 36 -80 80s36 80 80 80zM256 995c44 0 80 -36 80 -80s-36 -80 -80 -80s-80 36 -80 80s36 80 80 80zM202 0h-142v740h142v-740z" />
    <glyph glyph-name="Igrave" unicode="&#xcc;" horiz-adv-x="262" 
d="M223 826l-22 -26c-39 20 -165 90 -199 119c-25 20 -47 46 -16 83c32 38 61 20 85 -1c35 -29 125 -141 152 -175zM202 0h-142v740h142v-740z" />
    <glyph glyph-name="J" unicode="J" horiz-adv-x="525" 
d="M43 130l-33 -114c31 -15 85 -31 155 -31c209 0 295 107 295 293v462h-142v-462c0 -134 -49 -171 -150 -171c-54 0 -102 14 -125 23z" />
    <glyph glyph-name="K" unicode="K" horiz-adv-x="712" 
d="M60 740h142v-740h-142v740zM707 0h-166l-316 370l282 370h162l-278 -370z" />
    <glyph glyph-name="L" unicode="L" horiz-adv-x="577" 
d="M542 118v-118h-472v740h142v-622h330z" />
    <glyph glyph-name="Lslash" unicode="&#x141;" horiz-adv-x="627" 
d="M592 118v-118h-472v253l-45 -26l-55 93l100 59v361h142v-278l171 101l54 -94l-225 -132v-219h330z" />
    <glyph glyph-name="M" unicode="M" horiz-adv-x="828" 
d="M758 0h-142v486l-177 -303h-50l-177 303v-486h-142v740h142l202 -363l202 363h142v-740z" />
    <glyph glyph-name="N" unicode="N" horiz-adv-x="745" 
d="M675 740v-740h-142l-321 487v-487h-142v740h142l321 -497v497h142z" />
    <glyph glyph-name="Ntilde" unicode="&#xd1;" horiz-adv-x="745" 
d="M281 878c-43 0 -74 -18 -93 -33l-44 56c38 38 88 69 136 69c57 0 133 -39 183 -39c43 0 74 18 93 33l44 -56c-38 -38 -88 -69 -136 -69c-57 0 -133 39 -183 39zM675 740v-740h-142l-321 487v-487h-142v740h142l321 -497v497h142z" />
    <glyph glyph-name="O" unicode="O" horiz-adv-x="846" 
d="M423 755c227 0 373 -154 373 -385s-146 -385 -373 -385s-373 154 -373 385s146 385 373 385zM423 633c-138 0 -225 -105 -225 -263s87 -263 225 -263s225 105 225 263s-87 263 -225 263z" />
    <glyph glyph-name="Oacute" unicode="&#xd3;" horiz-adv-x="846" 
d="M353 800l-22 26c27 34 117 146 152 175c24 21 53 39 85 1c31 -37 9 -63 -16 -83c-34 -29 -160 -99 -199 -119zM423 755c227 0 373 -154 373 -385s-146 -385 -373 -385s-373 154 -373 385s146 385 373 385zM423 633c-138 0 -225 -105 -225 -263s87 -263 225 -263
s225 105 225 263s-87 263 -225 263z" />
    <glyph glyph-name="Ocircumflex" unicode="&#xd4;" horiz-adv-x="846" 
d="M424 897l-188 -71l-40 57l197 103h60l197 -103l-40 -57zM423 755c227 0 373 -154 373 -385s-146 -385 -373 -385s-373 154 -373 385s146 385 373 385zM423 633c-138 0 -225 -105 -225 -263s87 -263 225 -263s225 105 225 263s-87 263 -225 263z" />
    <glyph glyph-name="Odieresis" unicode="&#xd6;" horiz-adv-x="846" 
d="M298 995c44 0 80 -36 80 -80s-36 -80 -80 -80s-80 36 -80 80s36 80 80 80zM548 995c44 0 80 -36 80 -80s-36 -80 -80 -80s-80 36 -80 80s36 80 80 80zM423 755c227 0 373 -154 373 -385s-146 -385 -373 -385s-373 154 -373 385s146 385 373 385zM423 633
c-138 0 -225 -105 -225 -263s87 -263 225 -263s225 105 225 263s-87 263 -225 263z" />
    <glyph glyph-name="Ograve" unicode="&#xd2;" horiz-adv-x="846" 
d="M515 826l-22 -26c-39 20 -165 90 -199 119c-25 20 -47 46 -16 83c32 38 61 20 85 -1c35 -29 125 -141 152 -175zM423 755c227 0 373 -154 373 -385s-146 -385 -373 -385s-373 154 -373 385s146 385 373 385zM423 633c-138 0 -225 -105 -225 -263s87 -263 225 -263
s225 105 225 263s-87 263 -225 263z" />
    <glyph glyph-name="Oslash" unicode="&#xd8;" horiz-adv-x="846" 
d="M714 805l-60 -120c90 -67 142 -177 142 -315c0 -231 -146 -385 -373 -385c-40 0 -77 5 -111 14l-32 -64h-147l60 120c-91 66 -143 177 -143 315c0 231 146 385 373 385c40 0 77 -5 112 -14l32 64h147zM198 370c0 -77 21 -142 58 -188l222 445c-17 4 -36 6 -55 6
c-138 0 -225 -105 -225 -263zM423 107c138 0 225 105 225 263c0 77 -20 141 -57 187l-222 -444c17 -4 35 -6 54 -6z" />
    <glyph glyph-name="Otilde" unicode="&#xd5;" horiz-adv-x="846" 
d="M331 970c57 0 133 -39 183 -39c43 0 74 18 93 33l44 -56c-38 -38 -88 -69 -136 -69c-57 0 -133 39 -183 39c-43 0 -74 -18 -93 -33l-44 56c38 38 88 69 136 69zM423 755c227 0 373 -154 373 -385s-146 -385 -373 -385s-373 154 -373 385s146 385 373 385zM423 633
c-138 0 -225 -105 -225 -263s87 -263 225 -263s225 105 225 263s-87 263 -225 263z" />
    <glyph glyph-name="OE" unicode="&#x152;" horiz-adv-x="1196" 
d="M1141 118v-118h-492v52c-60 -43 -137 -67 -226 -67c-227 0 -373 154 -373 385s146 385 373 385c89 0 166 -24 226 -67v52h481v-118h-339v-180h324v-118h-321l-3 -26v-180h350zM423 107c138 0 225 105 225 263s-87 263 -225 263s-225 -105 -225 -263s87 -263 225 -263z
" />
    <glyph glyph-name="P" unicode="P" horiz-adv-x="703" 
d="M70 740h320c196 0 288 -80 288 -249s-92 -249 -288 -249h-178v-242h-142v740zM212 360h178c95 0 140 42 140 131s-45 131 -140 131h-178v-262z" />
    <glyph glyph-name="Thorn" unicode="&#xde;" horiz-adv-x="718" 
d="M212 650h178c196 0 288 -80 288 -249s-92 -249 -288 -249h-178v-152h-142v740h142v-90zM212 270h178c95 0 140 42 140 131s-45 131 -140 131h-178v-262z" />
    <glyph glyph-name="Q" unicode="Q" horiz-adv-x="846" 
d="M796 370c0 -151 -62 -269 -168 -332l60 -142l-130 -56l-64 150c-23 -3 -46 -5 -71 -5c-227 0 -373 154 -373 385s146 385 373 385s373 -154 373 -385zM533 260l41 -95c47 46 74 117 74 205c0 158 -87 263 -225 263s-225 -105 -225 -263s87 -263 225 -263l20 1l-41 96z
" />
    <glyph glyph-name="R" unicode="R" horiz-adv-x="718" 
d="M678 501c0 -105 -41 -186 -153 -221l145 -280h-152l-136 262h-170v-262h-142v740h315c219 0 293 -98 293 -239zM212 380h173c95 0 145 40 145 121s-50 121 -145 121h-173v-242z" />
    <glyph glyph-name="S" unicode="S" horiz-adv-x="650" 
d="M317 755c136 0 242 -37 268 -48l-25 -115c-12 4 -126 41 -234 41c-99 0 -138 -31 -138 -69c0 -51 28 -65 168 -114c180 -62 254 -114 254 -244c0 -133 -104 -221 -302 -221c-141 0 -250 51 -268 59l32 118c56 -26 140 -53 236 -53c128 0 155 50 155 95
c0 48 -34 70 -173 118c-193 66 -250 117 -250 230c0 136 114 203 277 203z" />
    <glyph glyph-name="Scaron" unicode="&#x160;" horiz-adv-x="650" 
d="M582 946l-197 -103h-60l-197 103l40 57l188 -71l186 71zM317 755c136 0 242 -37 268 -48l-25 -115c-12 4 -126 41 -234 41c-99 0 -138 -31 -138 -69c0 -51 28 -65 168 -114c180 -62 254 -114 254 -244c0 -133 -104 -221 -302 -221c-141 0 -250 51 -268 59l32 118
c56 -26 140 -53 236 -53c128 0 155 50 155 95c0 48 -34 70 -173 118c-193 66 -250 117 -250 230c0 136 114 203 277 203z" />
    <glyph glyph-name="T" unicode="T" horiz-adv-x="614" 
d="M599 622h-221v-622h-142v622h-221v118h584v-118z" />
    <glyph glyph-name="U" unicode="U" horiz-adv-x="750" 
d="M376 -15c223 0 309 121 309 303v452h-142v-452c0 -150 -61 -181 -167 -181c-108 0 -169 31 -169 181v452h-142v-452c0 -182 86 -303 311 -303z" />
    <glyph glyph-name="Uacute" unicode="&#xda;" horiz-adv-x="750" 
d="M305 800l-22 26c27 34 117 146 152 175c24 21 53 39 85 1c31 -37 9 -63 -16 -83c-34 -29 -160 -99 -199 -119zM376 -15c223 0 309 121 309 303v452h-142v-452c0 -150 -61 -181 -167 -181c-108 0 -169 31 -169 181v452h-142v-452c0 -182 86 -303 311 -303z" />
    <glyph glyph-name="Ucircumflex" unicode="&#xdb;" horiz-adv-x="750" 
d="M376 897l-188 -71l-40 57l197 103h60l197 -103l-40 -57zM376 -15c223 0 309 121 309 303v452h-142v-452c0 -150 -61 -181 -167 -181c-108 0 -169 31 -169 181v452h-142v-452c0 -182 86 -303 311 -303z" />
    <glyph glyph-name="Udieresis" unicode="&#xdc;" horiz-adv-x="750" 
d="M250 995c44 0 80 -36 80 -80s-36 -80 -80 -80s-80 36 -80 80s36 80 80 80zM500 995c44 0 80 -36 80 -80s-36 -80 -80 -80s-80 36 -80 80s36 80 80 80zM376 -15c223 0 309 121 309 303v452h-142v-452c0 -150 -61 -181 -167 -181c-108 0 -169 31 -169 181v452h-142v-452
c0 -182 86 -303 311 -303z" />
    <glyph glyph-name="Ugrave" unicode="&#xd9;" horiz-adv-x="750" 
d="M467 826l-22 -26c-39 20 -165 90 -199 119c-25 20 -47 46 -16 83c32 38 61 20 85 -1c35 -29 125 -141 152 -175zM376 -15c223 0 309 121 309 303v452h-142v-452c0 -150 -61 -181 -167 -181c-108 0 -169 31 -169 181v452h-142v-452c0 -182 86 -303 311 -303z" />
    <glyph glyph-name="V" unicode="V" horiz-adv-x="745" 
d="M740 740l-298 -740h-139l-298 740h152l216 -560l215 560h152z" />
    <glyph glyph-name="W" unicode="W" horiz-adv-x="1049" 
d="M824 0h-155l-144 494l-144 -494h-155l-216 740h144l150 -545l149 545h144l150 -545l149 545h143z" />
    <glyph glyph-name="X" unicode="X" horiz-adv-x="694" 
d="M527 0l-180 264l-180 -264h-162l261 382l-244 358h162l163 -239l163 239h162l-244 -358l261 -382h-162z" />
    <glyph glyph-name="Y" unicode="Y" horiz-adv-x="680" 
d="M411 281v-281h-142v281l-269 459h154l186 -332l186 332h154z" />
    <glyph glyph-name="Yacute" unicode="&#xdd;" horiz-adv-x="680" 
d="M248 800l-22 26c27 34 117 146 152 175c24 21 53 39 85 1c31 -37 9 -63 -16 -83c-34 -29 -160 -99 -199 -119zM411 281v-281h-142v281l-269 459h154l186 -332l186 332h154z" />
    <glyph glyph-name="Ydieresis" unicode="&#x178;" horiz-adv-x="680" 
d="M215 995c44 0 80 -36 80 -80s-36 -80 -80 -80s-80 36 -80 80s36 80 80 80zM465 995c44 0 80 -36 80 -80s-36 -80 -80 -80s-80 36 -80 80s36 80 80 80zM411 281v-281h-142v281l-269 459h154l186 -332l186 332h154z" />
    <glyph glyph-name="Z" unicode="Z" horiz-adv-x="634" 
d="M589 622l-385 -504h385v-118h-542l-2 118l385 504h-376v118h535v-118z" />
    <glyph glyph-name="Zcaron" unicode="&#x17d;" horiz-adv-x="634" 
d="M582 946l-197 -103h-60l-197 103l40 57l188 -71l186 71zM589 622l-385 -504h385v-118h-542l-2 118l385 504h-376v118h535v-118z" />
    <glyph glyph-name="Iacute_J.loclNLD" horiz-adv-x="627" 
d="M286 1082c42 -24 30 -56 13 -84c-22 -39 -116 -147 -146 -180l-30 17c14 42 60 178 83 217c16 28 37 55 80 30zM628 1082c42 -24 30 -56 13 -83c-22 -39 -116 -148 -146 -180l-29 17c13 41 60 177 83 216c15 28 36 55 79 30zM212 230h-142v510h142v-510zM145 130
l-33 -114c31 -15 85 -31 155 -31c209 0 295 107 295 293v462h-142v-462c0 -134 -49 -171 -150 -171c-54 0 -102 14 -125 23z" />
    <glyph glyph-name="a" unicode="a" horiz-adv-x="595" 
d="M580 0h-53c-65 0 -101 27 -116 58c-32 -41 -95 -68 -187 -68c-116 0 -189 52 -189 151c0 102 78 166 222 166c45 0 84 -6 112 -13v22c0 67 -35 82 -100 82c-48 0 -111 -8 -162 -25l-31 102c46 16 119 35 204 35c140 0 229 -51 229 -190v-145c0 -45 9 -54 58 -54h13v-121z
M255 74c58 0 114 31 114 112v22c-24 6 -56 12 -90 12c-74 0 -109 -28 -109 -75c0 -42 28 -71 85 -71z" />
    <glyph glyph-name="aacute" unicode="&#xe1;" horiz-adv-x="595" 
d="M207 560l-22 26c27 34 117 146 152 175c24 21 53 39 85 1c31 -37 9 -63 -16 -83c-34 -29 -160 -99 -199 -119zM580 0h-53c-65 0 -101 27 -116 58c-32 -41 -95 -68 -187 -68c-116 0 -189 52 -189 151c0 102 78 166 222 166c45 0 84 -6 112 -13v22c0 67 -35 82 -100 82
c-48 0 -111 -8 -162 -25l-31 102c46 16 119 35 204 35c140 0 229 -51 229 -190v-145c0 -45 9 -54 58 -54h13v-121zM255 74c58 0 114 31 114 112v22c-24 6 -56 12 -90 12c-74 0 -109 -28 -109 -75c0 -42 28 -71 85 -71z" />
    <glyph glyph-name="acircumflex" unicode="&#xe2;" horiz-adv-x="595" 
d="M278 657l-188 -71l-40 57l197 103h60l197 -103l-40 -57zM580 0h-53c-65 0 -101 27 -116 58c-32 -41 -95 -68 -187 -68c-116 0 -189 52 -189 151c0 102 78 166 222 166c45 0 84 -6 112 -13v22c0 67 -35 82 -100 82c-48 0 -111 -8 -162 -25l-31 102c46 16 119 35 204 35
c140 0 229 -51 229 -190v-145c0 -45 9 -54 58 -54h13v-121zM255 74c58 0 114 31 114 112v22c-24 6 -56 12 -90 12c-74 0 -109 -28 -109 -75c0 -42 28 -71 85 -71z" />
    <glyph glyph-name="adieresis" unicode="&#xe4;" horiz-adv-x="595" 
d="M152 755c44 0 80 -36 80 -80s-36 -80 -80 -80s-80 36 -80 80s36 80 80 80zM402 755c44 0 80 -36 80 -80s-36 -80 -80 -80s-80 36 -80 80s36 80 80 80zM580 0h-53c-65 0 -101 27 -116 58c-32 -41 -95 -68 -187 -68c-116 0 -189 52 -189 151c0 102 78 166 222 166
c45 0 84 -6 112 -13v22c0 67 -35 82 -100 82c-48 0 -111 -8 -162 -25l-31 102c46 16 119 35 204 35c140 0 229 -51 229 -190v-145c0 -45 9 -54 58 -54h13v-121zM255 74c58 0 114 31 114 112v22c-24 6 -56 12 -90 12c-74 0 -109 -28 -109 -75c0 -42 28 -71 85 -71z" />
    <glyph glyph-name="agrave" unicode="&#xe0;" horiz-adv-x="595" 
d="M369 586l-22 -26c-39 20 -165 90 -199 119c-25 20 -47 46 -16 83c32 38 61 20 85 -1c35 -29 125 -141 152 -175zM580 0h-53c-65 0 -101 27 -116 58c-32 -41 -95 -68 -187 -68c-116 0 -189 52 -189 151c0 102 78 166 222 166c45 0 84 -6 112 -13v22c0 67 -35 82 -100 82
c-48 0 -111 -8 -162 -25l-31 102c46 16 119 35 204 35c140 0 229 -51 229 -190v-145c0 -45 9 -54 58 -54h13v-121zM255 74c58 0 114 31 114 112v22c-24 6 -56 12 -90 12c-74 0 -109 -28 -109 -75c0 -42 28 -71 85 -71z" />
    <glyph glyph-name="aring" unicode="&#xe5;" horiz-adv-x="595" 
d="M278 839c71 0 129 -58 129 -129c0 -72 -58 -130 -129 -130c-72 0 -130 58 -130 130c0 71 58 129 130 129zM278 763c-29 0 -52 -24 -52 -53c0 -30 23 -54 52 -54c28 0 51 24 51 54c0 29 -23 53 -51 53zM580 0h-53c-65 0 -101 27 -116 58c-32 -41 -95 -68 -187 -68
c-116 0 -189 52 -189 151c0 102 78 166 222 166c45 0 84 -6 112 -13v22c0 67 -35 82 -100 82c-48 0 -111 -8 -162 -25l-31 102c46 16 119 35 204 35c140 0 229 -51 229 -190v-145c0 -45 9 -54 58 -54h13v-121zM255 74c58 0 114 31 114 112v22c-24 6 -56 12 -90 12
c-74 0 -109 -28 -109 -75c0 -42 28 -71 85 -71z" />
    <glyph glyph-name="atilde" unicode="&#xe3;" horiz-adv-x="595" 
d="M185 730c57 0 133 -39 183 -39c43 0 74 18 93 33l44 -56c-38 -38 -88 -69 -136 -69c-57 0 -133 39 -183 39c-43 0 -74 -18 -93 -33l-44 56c38 38 88 69 136 69zM580 0h-53c-65 0 -101 27 -116 58c-32 -41 -95 -68 -187 -68c-116 0 -189 52 -189 151c0 102 78 166 222 166
c45 0 84 -6 112 -13v22c0 67 -35 82 -100 82c-48 0 -111 -8 -162 -25l-31 102c46 16 119 35 204 35c140 0 229 -51 229 -190v-145c0 -45 9 -54 58 -54h13v-121zM255 74c58 0 114 31 114 112v22c-24 6 -56 12 -90 12c-74 0 -109 -28 -109 -75c0 -42 28 -71 85 -71z" />
    <glyph glyph-name="ae" unicode="&#xe6;" horiz-adv-x="907" 
d="M867 265c0 -10 -1 -34 -3 -53h-354c5 -73 38 -112 146 -112c51 0 114 9 156 19l21 -104c-53 -16 -131 -25 -189 -25c-103 0 -175 28 -219 80c-33 -45 -95 -80 -201 -80c-116 0 -189 52 -189 151c0 102 78 166 222 166c45 0 84 -6 112 -13v22c0 67 -35 82 -100 82
c-48 0 -111 -8 -162 -25l-31 102c46 16 119 35 204 35c76 0 136 -15 176 -50c42 33 98 50 169 50c154 0 242 -91 242 -245zM630 400c-84 0 -112 -39 -119 -103h231c-1 69 -41 103 -112 103zM255 74c58 0 114 30 114 111v23c-24 6 -56 12 -90 12c-74 0 -109 -28 -109 -75
c0 -42 28 -71 85 -71z" />
    <glyph glyph-name="b" unicode="b" horiz-adv-x="615" 
d="M360 510c134 0 215 -97 215 -258c0 -169 -89 -262 -227 -262c-68 0 -117 25 -148 64v-54h-140v740h140v-295c33 38 85 65 160 65zM311 105c83 0 124 56 124 145c0 95 -38 145 -117 145c-93 0 -118 -66 -118 -94v-117c0 -47 45 -79 111 -79z" />
    <glyph glyph-name="c" unicode="c" horiz-adv-x="488" 
d="M307 510c76 0 142 -18 142 -18l-18 -111s-56 14 -109 14c-92 0 -142 -44 -142 -146c0 -99 48 -141 129 -144c23 -1 78 0 125 17l19 -110c-32 -14 -91 -22 -142 -22c-177 0 -271 94 -271 261c0 168 96 259 267 259z" />
    <glyph glyph-name="ccedilla" unicode="&#xe7;" horiz-adv-x="488" 
d="M327 -10l-12 -23c38 -10 63 -36 63 -76c0 -47 -37 -91 -111 -91c-46 0 -89 21 -105 38l27 52c20 -11 45 -18 63 -18c20 0 35 11 35 32c0 22 -19 34 -50 34l-8 10l25 46c-140 18 -214 109 -214 257c0 168 96 259 267 259c76 0 142 -18 142 -18l-18 -111s-56 14 -109 14
c-92 0 -142 -44 -142 -146c0 -99 48 -141 129 -144c23 -1 78 0 125 17l19 -110c-29 -13 -79 -20 -126 -22z" />
    <glyph glyph-name="d" unicode="d" horiz-adv-x="615" 
d="M555 740v-740h-140v54c-31 -38 -81 -64 -151 -64c-134 0 -224 93 -224 263c0 160 80 257 218 257c73 0 124 -27 157 -66v296h140zM305 105c65 0 110 32 110 79v117c0 28 -26 94 -117 94c-80 0 -118 -51 -118 -142c0 -94 41 -148 125 -148z" />
    <glyph glyph-name="eth" unicode="&#xf0;" 
d="M480 704l-50 -36c76 -72 130 -194 130 -387c0 -210 -103 -291 -261 -291c-157 0 -259 102 -259 255s110 255 243 255c63 0 108 -20 125 -33c-11 58 -37 103 -72 135l-103 -73l-50 71l71 50c-27 9 -56 14 -85 14h-22l-4 89s35 2 61 2c50 0 102 -10 149 -34l77 55zM299 105
c74 0 119 56 119 140s-45 140 -119 140c-73 0 -119 -56 -119 -140s46 -140 119 -140z" />
    <glyph glyph-name="e" unicode="e" horiz-adv-x="576" 
d="M294 510c154 0 242 -83 242 -237v-20c0 -11 -1 -33 -3 -51h-353c8 -66 42 -102 145 -102c51 0 114 9 156 19l21 -104c-53 -16 -131 -25 -189 -25c-189 0 -273 96 -273 258c0 167 89 262 254 262zM299 400c-89 0 -115 -43 -120 -113h232v5c0 72 -40 108 -112 108z" />
    <glyph glyph-name="eacute" unicode="&#xe9;" horiz-adv-x="576" 
d="M417 679c-34 -29 -160 -99 -199 -119l-22 26c27 34 117 146 152 175c24 21 53 39 85 1c31 -37 9 -63 -16 -83zM294 510c154 0 242 -83 242 -237v-20c0 -11 -1 -33 -3 -51h-353c8 -66 42 -102 145 -102c51 0 114 9 156 19l21 -104c-53 -16 -131 -25 -189 -25
c-189 0 -273 96 -273 258c0 167 89 262 254 262zM299 400c-89 0 -115 -43 -120 -113h232v5c0 72 -40 108 -112 108z" />
    <glyph glyph-name="ecircumflex" unicode="&#xea;" horiz-adv-x="576" 
d="M101 586l-40 57l197 103h60l197 -103l-40 -57l-186 71zM294 510c154 0 242 -83 242 -237v-20c0 -11 -1 -33 -3 -51h-353c8 -66 42 -102 145 -102c51 0 114 9 156 19l21 -104c-53 -16 -131 -25 -189 -25c-189 0 -273 96 -273 258c0 167 89 262 254 262zM299 400
c-89 0 -115 -43 -120 -113h232v5c0 72 -40 108 -112 108z" />
    <glyph glyph-name="edieresis" unicode="&#xeb;" horiz-adv-x="576" 
d="M163 595c-44 0 -80 36 -80 80s36 80 80 80s80 -36 80 -80s-36 -80 -80 -80zM413 595c-44 0 -80 36 -80 80s36 80 80 80s80 -36 80 -80s-36 -80 -80 -80zM294 510c154 0 242 -83 242 -237v-20c0 -11 -1 -33 -3 -51h-353c8 -66 42 -102 145 -102c51 0 114 9 156 19l21 -104
c-53 -16 -131 -25 -189 -25c-189 0 -273 96 -273 258c0 167 89 262 254 262zM299 400c-89 0 -115 -43 -120 -113h232v5c0 72 -40 108 -112 108z" />
    <glyph glyph-name="egrave" unicode="&#xe8;" horiz-adv-x="576" 
d="M159 679c-25 20 -47 46 -16 83c32 38 61 20 85 -1c35 -29 125 -141 152 -175l-22 -26c-39 20 -165 90 -199 119zM294 510c154 0 242 -83 242 -237v-20c0 -11 -1 -33 -3 -51h-353c8 -66 42 -102 145 -102c51 0 114 9 156 19l21 -104c-53 -16 -131 -25 -189 -25
c-189 0 -273 96 -273 258c0 167 89 262 254 262zM299 400c-89 0 -115 -43 -120 -113h232v5c0 72 -40 108 -112 108z" />
    <glyph glyph-name="f" unicode="f" horiz-adv-x="431" 
d="M411 620h-72c-64 0 -94 -24 -94 -101v-19h155v-115h-155v-385h-140v385h-80v115h80v24c0 117 58 216 234 216h72v-120z" />
    <glyph glyph-name="g" unicode="g" horiz-adv-x="615" 
d="M555 500v-500c-6 -112 -89 -210 -270 -210c-81 0 -158 19 -206 42l38 116c62 -30 121 -38 163 -38c80 0 135 34 135 111v48c-31 -38 -81 -64 -151 -64c-134 0 -224 93 -224 250c0 158 80 255 218 255c73 0 124 -27 157 -66v56h140zM305 120c65 0 110 32 110 79v102
c0 28 -26 94 -117 94c-80 0 -118 -51 -118 -140c0 -81 41 -135 125 -135z" />
    <glyph glyph-name="h" unicode="h" horiz-adv-x="616" 
d="M373 510c118 0 188 -68 188 -196v-314h-140v282c0 69 -30 113 -102 113c-94 0 -119 -76 -119 -109v-286h-140v740h140v-306c38 47 96 76 173 76z" />
    <glyph glyph-name="i" unicode="i" horiz-adv-x="260" 
d="M130 755c44 0 80 -36 80 -80s-36 -80 -80 -80s-80 36 -80 80s36 80 80 80zM200 0h-140v500h140v-500z" />
    <glyph glyph-name="dotlessi" unicode="&#x131;" horiz-adv-x="260" 
d="M200 0h-140v500h140v-500z" />
    <glyph glyph-name="iacute" unicode="&#xed;" horiz-adv-x="260" 
d="M60 560l-22 26c27 34 117 146 152 175c24 21 53 39 85 1c31 -37 9 -63 -16 -83c-34 -29 -160 -99 -199 -119zM200 0h-140v500h140v-500z" />
    <glyph glyph-name="icircumflex" unicode="&#xee;" horiz-adv-x="260" 
d="M131 657l-188 -71l-40 57l197 103h60l197 -103l-40 -57zM200 0h-140v500h140v-500z" />
    <glyph glyph-name="idieresis" unicode="&#xef;" horiz-adv-x="260" 
d="M5 755c44 0 80 -36 80 -80s-36 -80 -80 -80s-80 36 -80 80s36 80 80 80zM255 755c44 0 80 -36 80 -80s-36 -80 -80 -80s-80 36 -80 80s36 80 80 80zM200 0h-140v500h140v-500z" />
    <glyph glyph-name="igrave" unicode="&#xec;" horiz-adv-x="260" 
d="M222 586l-22 -26c-39 20 -165 90 -199 119c-25 20 -47 46 -16 83c32 38 61 20 85 -1c35 -29 125 -141 152 -175zM200 0h-140v500h140v-500z" />
    <glyph glyph-name="j" unicode="j" horiz-adv-x="278" 
d="M148 755c44 0 80 -36 80 -80s-36 -80 -80 -80s-80 36 -80 80s36 80 80 80zM218 500v-484c0 -117 -59 -216 -238 -216h-55v120h55c69 0 98 24 98 101v479h140z" />
    <glyph glyph-name="dotlessj" unicode="&#x237;" horiz-adv-x="278" 
d="M218 500v-484c0 -117 -59 -216 -238 -216h-55v120h55c69 0 98 24 98 101v479h140z" />
    <glyph glyph-name="k" unicode="k" horiz-adv-x="592" 
d="M200 740v-740h-140v740h140zM428 0l-222 275l193 225h161l-195 -225l222 -275h-159z" />
    <glyph glyph-name="l" unicode="l" horiz-adv-x="350" 
d="M195 740v-519c0 -77 31 -101 106 -101h29v-120h-29c-157 0 -246 59 -246 232v508h140z" />
    <glyph glyph-name="lslash" unicode="&#x142;" horiz-adv-x="370" 
d="M350 120v-120h-29c-157 0 -246 59 -246 232v48l-40 -23l-55 93l95 56v334h140v-252l71 42l54 -94l-125 -73v-142c0 -77 31 -101 106 -101h29z" />
    <glyph glyph-name="m" unicode="m" horiz-adv-x="932" 
d="M700 510c114 0 177 -72 177 -195v-315h-140v288c0 76 -34 107 -93 107c-68 0 -105 -42 -105 -108v-287h-140v288c0 75 -34 107 -93 107c-67 0 -105 -42 -106 -103v-292h-140v500h140v-67c34 45 87 77 164 77c74 0 128 -33 155 -92c35 52 93 92 181 92z" />
    <glyph glyph-name="n" unicode="n" horiz-adv-x="616" 
d="M363 510c118 0 198 -73 198 -201v-309h-140v282c0 69 -30 113 -102 113c-94 0 -119 -76 -119 -109v-286h-140v500h140v-60c35 43 89 70 163 70z" />
    <glyph glyph-name="ntilde" unicode="&#xf1;" horiz-adv-x="616" 
d="M217 638c-43 0 -74 -18 -93 -33l-44 56c38 38 88 69 136 69c57 0 133 -39 183 -39c43 0 74 18 93 33l44 -56c-38 -38 -88 -69 -136 -69c-57 0 -133 39 -183 39zM363 510c118 0 198 -73 198 -201v-309h-140v282c0 69 -30 113 -102 113c-94 0 -119 -76 -119 -109v-286h-140
v500h140v-60c35 43 89 70 163 70z" />
    <glyph glyph-name="o" unicode="o" horiz-adv-x="607" 
d="M304 510c160 0 263 -104 263 -260s-103 -260 -263 -260s-264 104 -264 260s104 260 264 260zM304 395c-76 0 -124 -58 -124 -145s48 -145 124 -145s123 58 123 145s-47 145 -123 145z" />
    <glyph glyph-name="oacute" unicode="&#xf3;" horiz-adv-x="607" 
d="M233 560l-22 26c27 34 117 146 152 175c24 21 53 39 85 1c31 -37 9 -63 -16 -83c-34 -29 -160 -99 -199 -119zM304 510c160 0 263 -104 263 -260s-103 -260 -263 -260s-264 104 -264 260s104 260 264 260zM304 395c-76 0 -124 -58 -124 -145s48 -145 124 -145
s123 58 123 145s-47 145 -123 145z" />
    <glyph glyph-name="ocircumflex" unicode="&#xf4;" horiz-adv-x="607" 
d="M304 657l-188 -71l-40 57l197 103h60l197 -103l-40 -57zM304 510c160 0 263 -104 263 -260s-103 -260 -263 -260s-264 104 -264 260s104 260 264 260zM304 395c-76 0 -124 -58 -124 -145s48 -145 124 -145s123 58 123 145s-47 145 -123 145z" />
    <glyph glyph-name="odieresis" unicode="&#xf6;" horiz-adv-x="607" 
d="M178 755c44 0 80 -36 80 -80s-36 -80 -80 -80s-80 36 -80 80s36 80 80 80zM428 755c44 0 80 -36 80 -80s-36 -80 -80 -80s-80 36 -80 80s36 80 80 80zM304 510c160 0 263 -104 263 -260s-103 -260 -263 -260s-264 104 -264 260s104 260 264 260zM304 395
c-76 0 -124 -58 -124 -145s48 -145 124 -145s123 58 123 145s-47 145 -123 145z" />
    <glyph glyph-name="ograve" unicode="&#xf2;" horiz-adv-x="607" 
d="M395 586l-22 -26c-39 20 -165 90 -199 119c-25 20 -47 46 -16 83c32 38 61 20 85 -1c35 -29 125 -141 152 -175zM304 510c160 0 263 -104 263 -260s-103 -260 -263 -260s-264 104 -264 260s104 260 264 260zM304 395c-76 0 -124 -58 -124 -145s48 -145 124 -145
s123 58 123 145s-47 145 -123 145z" />
    <glyph glyph-name="oslash" unicode="&#xf8;" horiz-adv-x="607" 
d="M505 548l-42 -83c66 -45 104 -120 104 -215c0 -156 -103 -260 -263 -260c-26 0 -51 3 -74 8l-23 -46h-104l41 83c-66 45 -104 120 -104 215c0 156 104 260 264 260c26 0 51 -3 74 -8l23 46h104zM180 250c0 -37 9 -69 25 -94l119 238c-7 1 -13 1 -20 1
c-76 0 -124 -58 -124 -145zM304 105c76 0 123 58 123 145c0 37 -9 69 -25 93l-118 -237c6 -1 13 -1 20 -1z" />
    <glyph glyph-name="otilde" unicode="&#xf5;" horiz-adv-x="607" 
d="M211 730c57 0 133 -39 183 -39c43 0 74 18 93 33l44 -56c-38 -38 -88 -69 -136 -69c-57 0 -133 39 -183 39c-43 0 -74 -18 -93 -33l-44 56c38 38 88 69 136 69zM304 510c160 0 263 -104 263 -260s-103 -260 -263 -260s-264 104 -264 260s104 260 264 260zM304 395
c-76 0 -124 -58 -124 -145s48 -145 124 -145s123 58 123 145s-47 145 -123 145z" />
    <glyph glyph-name="oe" unicode="&#x153;" horiz-adv-x="963" 
d="M681 510c154 0 242 -83 242 -237v-20c0 -11 -1 -33 -3 -51h-353c8 -66 42 -102 145 -102c51 0 114 9 156 19l21 -104c-53 -16 -131 -25 -189 -25c-95 0 -163 24 -208 68c-45 -43 -110 -68 -188 -68c-160 0 -264 104 -264 260s104 260 264 260c78 0 143 -25 188 -68
c43 44 107 68 189 68zM686 400c-89 0 -115 -43 -120 -113h232v5c0 72 -40 108 -112 108zM304 105c76 0 123 58 123 145s-47 145 -123 145s-124 -58 -124 -145s48 -145 124 -145z" />
    <glyph glyph-name="p" unicode="p" horiz-adv-x="615" 
d="M357 510c138 0 218 -97 218 -257c0 -170 -90 -263 -224 -263c-70 0 -120 26 -151 64v-254h-140v700h140v-56c33 39 84 66 157 66zM310 105c84 0 125 54 125 148c0 91 -38 142 -118 142c-91 0 -117 -66 -117 -94v-117c0 -47 45 -79 110 -79z" />
    <glyph glyph-name="thorn" unicode="&#xfe;" horiz-adv-x="615" 
d="M357 510c138 0 218 -97 218 -257c0 -170 -90 -263 -224 -263c-70 0 -120 26 -151 64v-254h-140v940h140v-296c33 39 84 66 157 66zM310 105c84 0 125 54 125 148c0 91 -38 142 -118 142c-91 0 -117 -66 -117 -94v-117c0 -47 45 -79 110 -79z" />
    <glyph glyph-name="q" unicode="q" horiz-adv-x="615" 
d="M555 500v-700h-140v254c-31 -38 -81 -64 -151 -64c-134 0 -224 93 -224 263c0 160 80 257 218 257c73 0 124 -27 157 -66v56h140zM305 105c65 0 110 32 110 79v117c0 28 -26 94 -117 94c-80 0 -118 -51 -118 -142c0 -94 41 -148 125 -148z" />
    <glyph glyph-name="r" unicode="r" horiz-adv-x="427" 
d="M367 510c13 0 37 -2 50 -4l-15 -123c-11 2 -37 7 -63 7c-74 0 -139 -43 -139 -124v-266h-140v500h140v-74c34 48 89 84 167 84z" />
    <glyph glyph-name="s" unicode="s" horiz-adv-x="490" 
d="M243 510c99 0 181 -24 188 -27l-15 -107c-12 3 -85 23 -164 23c-61 0 -80 -14 -80 -34c0 -19 18 -27 103 -53c87 -27 180 -56 180 -160c0 -98 -66 -162 -222 -162c-109 0 -198 29 -203 31l19 112c14 -4 100 -31 187 -31c67 0 82 17 82 39c0 27 -25 35 -107 61
c-103 33 -176 59 -176 155c0 107 81 153 208 153z" />
    <glyph glyph-name="scaron" unicode="&#x161;" horiz-adv-x="490" 
d="M469 706l-197 -103h-60l-197 103l40 57l188 -71l186 71zM243 510c99 0 181 -24 188 -27l-15 -107c-12 3 -85 23 -164 23c-61 0 -80 -14 -80 -34c0 -19 18 -27 103 -53c87 -27 180 -56 180 -160c0 -98 -66 -162 -222 -162c-109 0 -198 29 -203 31l19 112
c14 -4 100 -31 187 -31c67 0 82 17 82 39c0 27 -25 35 -107 61c-103 33 -176 59 -176 155c0 107 81 153 208 153z" />
    <glyph glyph-name="germandbls" unicode="&#xdf;" horiz-adv-x="629" 
d="M471 319c66 -42 131 -82 131 -166c0 -69 -43 -163 -203 -163c-87 0 -151 28 -151 28l22 107s62 -25 125 -25c55 0 69 19 69 43c0 30 -22 46 -78 82c-90 58 -145 92 -145 178c0 101 75 147 159 147c12 0 24 -1 31 -2c0 46 -46 87 -122 87c-102 0 -109 -74 -109 -149v-486
h-140v486c0 181 67 264 243 264c193 0 255 -107 255 -226l-15 -93s-48 22 -102 22c-50 0 -67 -19 -67 -44c0 -26 19 -40 97 -90z" />
    <glyph glyph-name="t" unicode="t" horiz-adv-x="436" 
d="M391 120v-120h-55c-167 0 -235 88 -235 216v169h-81v115h81v150h140v-150h146v-115h-146v-164c0 -72 25 -101 100 -101h50z" />
    <glyph glyph-name="u" unicode="u" horiz-adv-x="630" 
d="M615 0h-40c-76 0 -123 26 -139 79c-32 -57 -101 -89 -186 -89c-128 0 -195 68 -195 191v319h140v-287c0 -76 36 -107 97 -107c74 0 108 47 110 102l-1 293h141v-338c0 -30 15 -43 51 -43h22v-120z" />
    <glyph glyph-name="uacute" unicode="&#xfa;" horiz-adv-x="630" 
d="M225 560l-22 26c27 34 117 146 152 175c24 21 53 39 85 1c31 -37 9 -63 -16 -83c-34 -29 -160 -99 -199 -119zM615 0h-40c-76 0 -123 26 -139 79c-32 -57 -101 -89 -186 -89c-128 0 -195 68 -195 191v319h140v-287c0 -76 36 -107 97 -107c74 0 108 47 110 102l-1 293h141
v-338c0 -30 15 -43 51 -43h22v-120z" />
    <glyph glyph-name="ucircumflex" unicode="&#xfb;" horiz-adv-x="630" 
d="M296 657l-188 -71l-40 57l197 103h60l197 -103l-40 -57zM615 0h-40c-76 0 -123 26 -139 79c-32 -57 -101 -89 -186 -89c-128 0 -195 68 -195 191v319h140v-287c0 -76 36 -107 97 -107c74 0 108 47 110 102l-1 293h141v-338c0 -30 15 -43 51 -43h22v-120z" />
    <glyph glyph-name="udieresis" unicode="&#xfc;" horiz-adv-x="630" 
d="M170 755c44 0 80 -36 80 -80s-36 -80 -80 -80s-80 36 -80 80s36 80 80 80zM420 755c44 0 80 -36 80 -80s-36 -80 -80 -80s-80 36 -80 80s36 80 80 80zM615 0h-40c-76 0 -123 26 -139 79c-32 -57 -101 -89 -186 -89c-128 0 -195 68 -195 191v319h140v-287
c0 -76 36 -107 97 -107c74 0 108 47 110 102l-1 293h141v-338c0 -30 15 -43 51 -43h22v-120z" />
    <glyph glyph-name="ugrave" unicode="&#xf9;" horiz-adv-x="630" 
d="M387 586l-22 -26c-39 20 -165 90 -199 119c-25 20 -47 46 -16 83c32 38 61 20 85 -1c35 -29 125 -141 152 -175zM615 0h-40c-76 0 -123 26 -139 79c-32 -57 -101 -89 -186 -89c-128 0 -195 68 -195 191v319h140v-287c0 -76 36 -107 97 -107c74 0 108 47 110 102l-1 293
h141v-338c0 -30 15 -43 51 -43h22v-120z" />
    <glyph glyph-name="v" unicode="v" horiz-adv-x="590" 
d="M580 500l-211 -500h-148l-211 500h145l140 -357l140 357h145z" />
    <glyph glyph-name="w" unicode="w" horiz-adv-x="920" 
d="M720 0h-147l-113 325l-113 -325h-147l-185 500h145l114 -349l114 349h144l114 -349l114 349h145z" />
    <glyph glyph-name="x" unicode="x" horiz-adv-x="541" 
d="M271 155l-115 -155h-146l188 254l-182 246h146l109 -147l108 147h146l-181 -246l187 -254h-146z" />
    <glyph glyph-name="y" unicode="y" horiz-adv-x="584" 
d="M574 500l-213 -500c-56 -135 -119 -200 -256 -200h-31v120h31c46 0 86 14 118 80l-213 500h145l137 -346l137 346h145z" />
    <glyph glyph-name="yacute" unicode="&#xfd;" horiz-adv-x="584" 
d="M421 679c-34 -29 -160 -99 -199 -119l-22 26c27 34 117 146 152 175c24 21 53 39 85 1c31 -37 9 -63 -16 -83zM574 500l-213 -500c-56 -135 -119 -200 -256 -200h-31v120h31c46 0 86 14 118 80l-213 500h145l137 -346l137 346h145z" />
    <glyph glyph-name="ydieresis" unicode="&#xff;" horiz-adv-x="584" 
d="M167 595c-44 0 -80 36 -80 80s36 80 80 80s80 -36 80 -80s-36 -80 -80 -80zM417 595c-44 0 -80 36 -80 80s36 80 80 80s80 -36 80 -80s-36 -80 -80 -80zM574 500l-213 -500c-56 -135 -119 -200 -256 -200h-31v120h31c46 0 86 14 118 80l-213 500h145l137 -346l137 346
h145z" />
    <glyph glyph-name="z" unicode="z" horiz-adv-x="497" 
d="M457 500v-115h-1l-256 -270h253v-115h-413v115l256 270h-255v115h416z" />
    <glyph glyph-name="zcaron" unicode="&#x17e;" horiz-adv-x="497" 
d="M232 603l-197 103l40 57l188 -71l186 71l40 -57l-197 -103h-60zM41 500h416v-115h-1l-256 -270h253v-115h-413v115l256 270h-255v115z" />
    <glyph glyph-name="iacute_j.loclNLD" horiz-adv-x="538" 
d="M256 842c42 -24 30 -56 13 -84c-22 -39 -116 -147 -146 -180l-30 17c14 42 60 178 83 217c16 28 37 55 80 30zM528 842c42 -24 30 -56 13 -83c-22 -39 -116 -148 -146 -180l-29 17c13 41 60 177 83 216c15 28 36 55 79 30zM200 0h-140v500h140v-500zM478 500v-484
c0 -117 -59 -216 -238 -216h-55v120h55c69 0 98 24 98 101v479h140z" />
    <glyph glyph-name="I_J" horiz-adv-x="627" 
d="M212 230h-142v510h142v-510zM145 130l-33 -114c31 -15 85 -31 155 -31c209 0 295 107 295 293v462h-142v-462c0 -134 -49 -171 -150 -171c-54 0 -102 14 -125 23z" />
    <glyph glyph-name="f_j" horiz-adv-x="665" 
d="M535 595c-44 0 -80 36 -80 80s36 80 80 80s80 -36 80 -80s-36 -80 -80 -80zM605 500v-484c0 -117 -59 -216 -238 -216h-55v120h55c69 0 98 24 98 101v364h-220v-385h-140v385h-80v115h80v24c0 117 58 216 234 216h47v-120h-47c-64 0 -94 -24 -94 -101v-19h360z" />
    <glyph glyph-name="f_t" horiz-adv-x="800" 
d="M755 120v-120h-55c-167 0 -235 88 -235 216v169h-220v-385h-140v385h-80v115h80v24c0 117 58 216 234 216h52v-120h-52c-64 0 -94 -24 -94 -101v-19h220v150h140v-150h146v-115h-146v-164c0 -72 25 -101 100 -101h50z" />
    <glyph glyph-name="i_j" horiz-adv-x="538" 
d="M130 755c44 0 80 -36 80 -80s-36 -80 -80 -80s-80 36 -80 80s36 80 80 80zM408 755c44 0 80 -36 80 -80s-36 -80 -80 -80s-80 36 -80 80s36 80 80 80zM200 0h-140v500h140v-500zM478 500v-484c0 -117 -59 -216 -238 -216h-55v120h55c69 0 98 24 98 101v479h140z" />
    <glyph glyph-name="t_t" horiz-adv-x="791" 
d="M746 120v-120h-55c-167 0 -235 88 -235 216v169h-210v-164c0 -72 25 -101 100 -101h50v-120h-55c-167 0 -235 88 -235 216v169h-81v115h81v150h140v-150h210v150h140v-150h146v-115h-146v-164c0 -72 25 -101 100 -101h50z" />
    <glyph glyph-name="ordfeminine" unicode="&#xaa;" horiz-adv-x="545" 
d="M485 476v-113h-61c-54 0 -84 15 -101 39c-22 -27 -59 -47 -120 -47c-86 0 -143 39 -143 114c0 72 54 126 166 126c30 0 56 -4 76 -9v24c0 38 -25 42 -59 42c-24 0 -77 -1 -126 -16l-27 93c42 13 104 26 163 26c106 0 179 -39 179 -143v-99c0 -34 6 -37 41 -37h12z
M302 502v5v5c-15 4 -34 7 -53 7c-41 0 -64 -17 -64 -47c0 -25 16 -44 48 -44c21 0 69 8 69 74z" />
    <glyph glyph-name="ordmasculine" unicode="&#xba;" horiz-adv-x="543" 
d="M272 755c129 0 211 -79 211 -200s-82 -200 -211 -200s-212 79 -212 200s83 200 212 200zM272 651c-53 0 -85 -37 -85 -96s32 -97 85 -97s84 38 84 97s-31 96 -84 96z" />
    <glyph glyph-name="Delta" unicode="&#x394;" 
 />
    <glyph glyph-name="Omega" unicode="&#x3a9;" 
 />
    <glyph glyph-name="mu" unicode="&#x3bc;" 
 />
    <glyph glyph-name="pi" unicode="&#x3c0;" 
 />
    <glyph glyph-name="zero" unicode="0" horiz-adv-x="776" 
d="M388 755c-225 0 -338 -133 -338 -385c0 -253 113 -385 338 -385s338 132 338 385c0 252 -113 385 -338 385zM388 633c133 0 190 -81 190 -263s-57 -263 -190 -263s-190 81 -190 263s57 263 190 263z" />
    <glyph glyph-name="one" unicode="1" horiz-adv-x="542" 
d="M527 0h-483v118h180v479l-165 -43l-34 114l239 72h102v-622h161v-118z" />
    <glyph glyph-name="two" unicode="2" horiz-adv-x="606" 
d="M349 304c-71 -50 -168 -102 -168 -186h381v-118h-542v62c0 141 98 233 184 297c92 69 217 114 217 196c0 53 -47 82 -131 82c-82 0 -139 -21 -204 -54l-50 105c91 52 172 67 263 67c192 0 267 -92 267 -194c0 -136 -156 -214 -217 -257z" />
    <glyph glyph-name="three" unicode="3" horiz-adv-x="619" 
d="M481 402c59 -35 98 -93 98 -171c0 -151 -111 -246 -312 -246c-120 0 -204 28 -267 64l44 112c61 -30 133 -56 221 -56c115 0 169 37 169 126c0 68 -45 114 -149 113l-120 -1v116h84c104 0 163 12 163 88c0 47 -34 88 -148 88c-83 0 -150 -25 -201 -46l-50 105
c70 39 154 61 251 61c192 0 292 -82 293 -206c1 -65 -24 -114 -76 -147z" />
    <glyph glyph-name="four" unicode="4" horiz-adv-x="691" 
d="M561 159v-159h-142v159h-379v118l261 463h146l-256 -463h228v194h142v-194h100v-118h-100z" />
    <glyph glyph-name="five" unicode="5" horiz-adv-x="659" 
d="M348 500c167 0 266 -86 266 -247c0 -158 -108 -268 -305 -268c-114 0 -196 24 -264 60l45 112c61 -30 135 -52 218 -52c112 0 161 58 161 146c0 80 -44 132 -145 132c-84 0 -129 -41 -149 -55h-121l58 412h454v-118h-335l-24 -156c38 19 84 34 141 34z" />
    <glyph glyph-name="six" unicode="6" horiz-adv-x="678" 
d="M375 500c164 0 263 -89 263 -250c0 -153 -95 -265 -286 -265c-218 0 -307 119 -307 336c0 276 106 432 350 432c67 0 129 -12 164 -22l-32 -114c-33 8 -84 16 -126 16c-129 0 -183 -68 -202 -186c43 31 100 53 176 53zM349 103c100 0 148 59 148 144
c0 81 -45 137 -148 137c-82 0 -131 -42 -159 -70v-1c0 -135 37 -210 159 -210z" />
    <glyph glyph-name="seven" unicode="7" horiz-adv-x="569" 
d="M539 740v-118l-313 -622h-153l313 622h-381v118h534z" />
    <glyph glyph-name="eight" unicode="8" horiz-adv-x="677" 
d="M505 397c91 -31 132 -95 132 -191c0 -141 -107 -221 -298 -221s-299 80 -299 221c0 96 42 160 132 191c-74 31 -110 88 -110 165c0 124 100 193 277 193s277 -69 277 -193c0 -77 -36 -134 -111 -165zM339 650c-86 0 -135 -32 -135 -89c0 -66 38 -101 134 -101
c98 0 136 35 136 101c0 57 -49 89 -135 89zM339 92c100 0 156 41 156 113c0 74 -37 125 -156 125c-120 0 -157 -51 -157 -125c0 -72 57 -113 157 -113z" />
    <glyph glyph-name="nine" unicode="9" horiz-adv-x="678" 
d="M326 753c218 0 307 -119 307 -336c0 -276 -106 -432 -350 -432c-85 0 -148 17 -183 27l33 119c24 -9 82 -26 144 -26c132 0 186 72 204 195c-44 -32 -103 -56 -181 -56c-164 0 -260 86 -260 247c0 153 95 262 286 262zM181 494c0 -81 42 -134 145 -134
c85 0 135 45 162 73c-2 134 -43 202 -159 202c-99 0 -148 -59 -148 -141z" />
    <glyph glyph-name="fraction" unicode="&#x2044;" horiz-adv-x="739" 
d="M209 0h-149l470 740h149z" />
    <glyph glyph-name="onehalf" unicode="&#xbd;" horiz-adv-x="1217" 
d="M210 465v153l-89 -5l-21 95l151 32h85v-275h87v-102h-320v102h107zM920 740l-470 -740h-149l470 740h149zM1014 161c-20 -10 -67 -24 -74 -59h172v-102h-313v46c3 89 37 130 66 147c63 38 124 59 124 82c0 17 -15 21 -42 21c-35 0 -68 -7 -114 -24l-35 87
c26 18 102 33 160 33c131 0 159 -64 159 -106c0 -76 -85 -116 -103 -125z" />
    <glyph glyph-name="onequarter" unicode="&#xbc;" horiz-adv-x="1216" 
d="M423 363h-320v102h107v153l-89 -5l-21 95l151 32h85v-275h87v-102zM450 0h-149l470 740h149zM1069 63v-63h-107v63h-212v92l134 222h123l-128 -222h83v67h107v-67h47v-92h-47z" />
    <glyph glyph-name="threequarters" unicode="&#xbe;" horiz-adv-x="1226" 
d="M392 568c25 -16 44 -37 44 -87c0 -78 -76 -126 -177 -126c-60 0 -101 8 -158 37l34 87c41 -19 79 -29 118 -29c47 0 62 16 62 40c0 19 -10 30 -42 30l-85 -1v83h65c35 0 46 12 46 32c0 19 -15 27 -56 27c-45 0 -90 -12 -113 -19l-30 84c49 17 95 29 152 29
c110 0 169 -44 169 -109c0 -41 -12 -64 -29 -78zM460 0h-149l470 740h149zM1079 63v-63h-107v63h-212v92l134 222h123l-128 -222h83v67h107v-67h47v-92h-47z" />
    <glyph glyph-name="onesuperior" unicode="&#xb9;" horiz-adv-x="423" 
d="M373 363h-320v102h107v153l-89 -5l-21 95l151 32h85v-275h87v-102z" />
    <glyph glyph-name="twosuperior" unicode="&#xb2;" horiz-adv-x="442" 
d="M279 524c-20 -10 -67 -24 -74 -59h172v-102h-313v46c3 89 37 130 66 147c63 38 124 59 124 82c0 17 -15 21 -42 21c-35 0 -68 -7 -114 -24l-35 87c26 18 102 33 160 33c131 0 159 -64 159 -106c0 -76 -85 -116 -103 -125z" />
    <glyph glyph-name="threesuperior" unicode="&#xb3;" horiz-adv-x="456" 
d="M352 568c25 -16 44 -37 44 -87c0 -78 -76 -126 -177 -126c-60 0 -101 8 -158 37l34 87c41 -19 79 -29 118 -29c47 0 62 16 62 40c0 19 -10 30 -42 30l-85 -1v83h65c35 0 46 12 46 32c0 19 -15 27 -56 27c-45 0 -90 -12 -113 -19l-30 84c49 17 95 29 152 29
c110 0 169 -44 169 -109c0 -41 -12 -64 -29 -78z" />
    <glyph glyph-name="asterisk" unicode="*" horiz-adv-x="672" 
d="M376 566h-80l-15 174h110zM296 566l-27 -74l-169 45l38 103zM572 537l-169 -45l-27 74l158 74zM336 453l-73 -159l-95 55l101 143zM504 349l-95 -55l-73 159l67 39z" />
    <glyph glyph-name="backslash" unicode="\" horiz-adv-x="637" 
d="M207 740l370 -740h-147l-370 740h147z" />
    <glyph glyph-name="bullet" unicode="&#x2022;" horiz-adv-x="422" 
d="M211 514c72 0 131 -58 131 -130s-59 -131 -131 -131s-131 59 -131 131s59 130 131 130z" />
    <glyph glyph-name="colon" unicode=":" horiz-adv-x="280" 
d="M140 510c44 0 80 -36 80 -80s-36 -80 -80 -80s-80 36 -80 80s36 80 80 80zM140 145c44 0 80 -36 80 -80s-36 -80 -80 -80s-80 36 -80 80s36 80 80 80z" />
    <glyph glyph-name="comma" unicode="," horiz-adv-x="282" 
d="M142 145c39 0 80 -24 80 -91c0 -96 -82 -171 -120 -192l-40 35c14 12 47 59 47 95c-30 13 -49 40 -49 73c0 44 35 80 82 80z" />
    <glyph glyph-name="ellipsis" unicode="&#x2026;" horiz-adv-x="740" 
d="M140 145c44 0 80 -36 80 -80s-36 -80 -80 -80s-80 36 -80 80s36 80 80 80zM370 145c44 0 80 -36 80 -80s-36 -80 -80 -80s-80 36 -80 80s36 80 80 80zM600 145c44 0 80 -36 80 -80s-36 -80 -80 -80s-80 36 -80 80s36 80 80 80z" />
    <glyph glyph-name="exclam" unicode="!" horiz-adv-x="280" 
d="M211 450l-20 -240h-102l-20 240v290h142v-290zM140 145c44 0 80 -36 80 -80s-36 -80 -80 -80s-80 36 -80 80s36 80 80 80z" />
    <glyph glyph-name="exclamdown" unicode="&#xa1;" horiz-adv-x="280" 
d="M140 595c-44 0 -80 36 -80 80s36 80 80 80s80 -36 80 -80s-36 -80 -80 -80zM69 290l20 240h102l20 -240v-290h-142v290z" />
    <glyph glyph-name="numbersign" unicode="#" horiz-adv-x="799" 
d="M605 420l-30 -132h114l-30 -118h-111l-39 -170h-127l39 170h-143l-39 -170h-127l39 170h-101l30 118h98l30 132h-98l30 118h96l46 202h127l-46 -202h143l46 202h127l-46 -202h116l-30 -118h-114zM478 420h-143l-30 -132h143z" />
    <glyph glyph-name="period" unicode="." horiz-adv-x="280" 
d="M140 145c44 0 80 -36 80 -80s-36 -80 -80 -80s-80 36 -80 80s36 80 80 80z" />
    <glyph glyph-name="periodcentered" unicode="&#xb7;" horiz-adv-x="240" 
d="M120 443c44 0 80 -36 80 -80s-36 -80 -80 -80s-80 36 -80 80s36 80 80 80z" />
    <glyph glyph-name="question" unicode="?" horiz-adv-x="622" 
d="M304 755c172 0 268 -71 268 -191c0 -91 -49 -136 -153 -188c-102 -51 -107 -60 -107 -156h-136c0 151 9 172 138 240c75 39 110 51 110 106c0 42 -36 71 -127 71c-80 0 -145 -22 -197 -49l-50 103c75 41 156 64 254 64zM245 145c44 0 80 -36 80 -80s-36 -80 -80 -80
s-80 36 -80 80s36 80 80 80z" />
    <glyph glyph-name="questiondown" unicode="&#xbf;" horiz-adv-x="622" 
d="M377 394c-44 0 -80 36 -80 80s36 80 80 80s80 -36 80 -80s-36 -80 -80 -80zM318 -216c-172 0 -268 71 -268 191c0 91 49 136 153 188c102 51 107 60 107 156h136c0 -151 -9 -172 -138 -240c-75 -39 -110 -51 -110 -106c0 -42 36 -71 127 -71c80 0 145 22 197 49l50 -103
c-75 -41 -156 -64 -254 -64z" />
    <glyph glyph-name="quotedbl" unicode="&#x22;" horiz-adv-x="412" 
d="M108 755c59 0 68 -39 68 -71c0 -45 -34 -191 -47 -234h-42c-13 43 -47 189 -47 234c0 32 9 71 68 71zM304 755c59 0 68 -39 68 -71c0 -45 -34 -191 -47 -234h-42c-13 43 -47 189 -47 234c0 32 9 71 68 71z" />
    <glyph glyph-name="quotesingle" unicode="'" horiz-adv-x="216" 
d="M129 450h-42c-13 43 -47 189 -47 234c0 32 9 71 68 71s68 -39 68 -71c0 -45 -34 -191 -47 -234z" />
    <glyph glyph-name="semicolon" unicode=";" horiz-adv-x="282" 
d="M140 510c44 0 80 -36 80 -80s-36 -80 -80 -80s-80 36 -80 80s36 80 80 80zM142 145c39 0 80 -24 80 -91c0 -96 -82 -171 -120 -192l-40 35c14 12 47 59 47 95c-30 13 -49 40 -49 73c0 44 35 80 82 80z" />
    <glyph glyph-name="slash" unicode="/" horiz-adv-x="637" 
d="M207 0h-147l370 740h147z" />
    <glyph glyph-name="underscore" unicode="_" horiz-adv-x="680" 
d="M600 -190h-520v115h520v-115z" />
    <glyph glyph-name="braceleft" unicode="{" horiz-adv-x="414" 
d="M384 682h-51c-44 0 -61 -14 -61 -54c0 -61 26 -118 26 -185c0 -73 -31 -107 -54 -113c23 -6 54 -40 54 -113c0 -67 -26 -124 -26 -185c0 -40 17 -54 61 -54h51v-108h-88c-116 0 -166 53 -166 133c0 81 21 138 21 191c0 82 -62 82 -101 82v108c39 0 101 0 101 82
c0 53 -21 110 -21 191c0 80 50 133 166 133h88v-108z" />
    <glyph glyph-name="braceright" unicode="}" horiz-adv-x="414" 
d="M30 790h88c116 0 166 -53 166 -133c0 -81 -21 -138 -21 -191c0 -82 62 -82 101 -82v-108c-39 0 -101 0 -101 -82c0 -53 21 -110 21 -191c0 -80 -50 -133 -166 -133h-88v108h51c44 0 61 14 61 54c0 61 -26 118 -26 185c0 73 31 107 54 113c-23 6 -54 40 -54 113
c0 67 26 124 26 185c0 40 -17 54 -61 54h-51v108z" />
    <glyph glyph-name="bracketleft" unicode="[" horiz-adv-x="399" 
d="M222 682v-704h147v-108h-289v920h289v-108h-147z" />
    <glyph glyph-name="bracketright" unicode="]" horiz-adv-x="399" 
d="M319 795v-945h-289v108h147v729h-147v108h289z" />
    <glyph glyph-name="parenleft" unicode="(" horiz-adv-x="376" 
d="M242 800l94 -50c-73 -118 -108 -268 -108 -419s35 -302 108 -421l-94 -50c-108 144 -162 306 -162 468c0 163 54 327 162 472z" />
    <glyph glyph-name="parenright" unicode=")" horiz-adv-x="376" 
d="M40 750l94 50c108 -145 162 -309 162 -472c0 -162 -54 -324 -162 -468l-94 50c73 119 108 270 108 421s-35 301 -108 419z" />
    <glyph glyph-name="emdash" unicode="&#x2014;" horiz-adv-x="980" 
d="M900 270h-820v115h820v-115z" />
    <glyph glyph-name="endash" unicode="&#x2013;" horiz-adv-x="680" 
d="M600 270h-520v115h520v-115z" />
    <glyph glyph-name="hyphen" unicode="-" horiz-adv-x="480" 
d="M400 270h-320v115h320v-115z" />
    <glyph glyph-name="guillemotleft" unicode="&#xab;" horiz-adv-x="637" 
d="M322 493l-111 -168l111 -168l-72 -59l-170 213v28l170 213zM557 493l-111 -168l111 -168l-72 -59l-170 213v28l170 213z" />
    <glyph glyph-name="guillemotright" unicode="&#xbb;" horiz-adv-x="637" 
d="M322 339v-28l-170 -213l-72 59l111 168l-111 168l72 59zM557 339v-28l-170 -213l-72 59l111 168l-111 168l72 59z" />
    <glyph glyph-name="guilsinglleft" unicode="&#x2039;" horiz-adv-x="402" 
d="M322 493l-111 -168l111 -168l-72 -59l-170 213v28l170 213z" />
    <glyph glyph-name="guilsinglright" unicode="&#x203a;" horiz-adv-x="402" 
d="M322 339v-28l-170 -213l-72 59l111 168l-111 168l72 59z" />
    <glyph glyph-name="quotedblbase" unicode="&#x201e;" horiz-adv-x="490" 
d="M132 161c38 0 80 -23 80 -93c0 -97 -82 -172 -120 -193l-40 34c14 12 47 59 47 99c-30 13 -49 40 -49 73c0 44 35 80 82 80zM360 161c38 0 80 -23 80 -93c0 -97 -82 -172 -120 -193l-40 34c14 12 47 59 47 99c-30 13 -49 40 -49 73c0 44 35 80 82 80z" />
    <glyph glyph-name="quotedblleft" unicode="&#x201c;" horiz-adv-x="490" 
d="M170 755l40 -35c-15 -11 -47 -59 -47 -99c30 -12 49 -40 49 -72c0 -44 -35 -80 -82 -80c-38 0 -80 22 -80 92c0 98 82 173 120 194zM398 755l40 -35c-15 -11 -47 -59 -47 -99c30 -12 49 -40 49 -72c0 -44 -35 -80 -82 -80c-38 0 -80 22 -80 92c0 98 82 173 120 194z" />
    <glyph glyph-name="quotedblright" unicode="&#x201d;" horiz-adv-x="490" 
d="M132 755c38 0 80 -23 80 -93c0 -97 -82 -172 -120 -193l-40 34c14 12 47 59 47 99c-30 13 -49 40 -49 73c0 44 35 80 82 80zM360 755c38 0 80 -23 80 -93c0 -97 -82 -172 -120 -193l-40 34c14 12 47 59 47 99c-30 13 -49 40 -49 73c0 44 35 80 82 80z" />
    <glyph glyph-name="quoteleft" unicode="&#x2018;" horiz-adv-x="262" 
d="M170 755l40 -35c-15 -11 -47 -59 -47 -99c30 -12 49 -40 49 -72c0 -44 -35 -80 -82 -80c-38 0 -80 22 -80 92c0 98 82 173 120 194z" />
    <glyph glyph-name="quoteright" unicode="&#x2019;" horiz-adv-x="262" 
d="M132 755c38 0 80 -23 80 -93c0 -97 -82 -172 -120 -193l-40 34c14 12 47 59 47 99c-30 13 -49 40 -49 73c0 44 35 80 82 80z" />
    <glyph glyph-name="quotesinglbase" unicode="&#x201a;" horiz-adv-x="262" 
d="M132 161c38 0 80 -23 80 -93c0 -97 -82 -172 -120 -193l-40 34c14 12 47 59 47 99c-30 13 -49 40 -49 73c0 44 35 80 82 80z" />
    <glyph glyph-name="space" unicode=" " horiz-adv-x="240" 
 />
    <glyph glyph-name="cent" unicode="&#xa2;" horiz-adv-x="573" 
d="M476 123l17 -111c-23 -10 -60 -17 -100 -20v-130h-100v131c-138 19 -213 110 -213 258c0 150 77 238 213 256v133h100v-132c34 -2 68 -7 96 -14l-16 -115c-31 10 -80 16 -116 16c-87 0 -137 -45 -137 -147c0 -97 48 -140 129 -143c40 -1 83 3 127 18z" />
    <glyph glyph-name="currency" unicode="&#xa4;" 
 />
    <glyph glyph-name="dollar" unicode="$" horiz-adv-x="730" 
d="M650 206c0 -115 -78 -196 -227 -216v-108h-108v104c-125 7 -218 51 -235 58l32 118c49 -23 121 -47 203 -52v217c-181 64 -235 115 -235 225c0 124 95 191 235 201v107h108v-108c103 -9 180 -36 202 -43l-22 -117c-27 5 -100 29 -180 38v-190c160 -58 227 -111 227 -234z
M228 564c0 -39 16 -56 87 -84v150c-62 -9 -87 -35 -87 -66zM423 287v-170c64 15 80 53 80 87c0 35 -18 56 -80 83z" />
    <glyph glyph-name="Euro" unicode="&#x20ac;" horiz-adv-x="694" 
d="M622 128l22 -116c-11 -5 -90 -27 -186 -27c-184 0 -295 86 -332 250h-76v108h63v27c0 13 0 25 1 37h-63v108h78c39 158 149 240 329 240c74 0 151 -18 162 -23l-22 -116c-3 0 -62 17 -140 17c-94 0 -151 -37 -178 -118h225v-108h-243c-1 -12 -1 -24 -1 -37v-27h243v-108
h-227c26 -88 84 -128 181 -128c93 0 162 21 164 21z" />
    <glyph glyph-name="sterling" unicode="&#xa3;" horiz-adv-x="686" 
d="M626 118v-118h-546v118h185c-2 53 -8 96 -28 137h-147v108h69c-44 53 -79 98 -79 184c0 121 101 208 267 208c118 0 204 -33 263 -67l-50 -105c-56 27 -128 54 -206 54c-98 0 -129 -58 -129 -93c0 -64 29 -81 102 -174l5 -7h212v-108h-155c14 -44 18 -89 19 -137h218z
" />
    <glyph glyph-name="yen" unicode="&#xa5;" horiz-adv-x="840" 
d="M564 405h83v-108h-147l-9 -16v-48h156v-108h-156v-125h-142v125h-156v108h156v48l-9 16h-147v108h83l-196 335h149l191 -335l191 335h149z" />
    <glyph glyph-name="approxequal" unicode="&#x2248;" 
 />
    <glyph glyph-name="asciitilde" unicode="~" 
 />
    <glyph glyph-name="divide" unicode="&#xf7;" horiz-adv-x="708" 
d="M354 638c44 0 80 -36 80 -80s-36 -80 -80 -80s-80 36 -80 80s36 80 80 80zM628 271h-548v115h548v-115zM354 183c44 0 80 -36 80 -80s-36 -80 -80 -80s-80 36 -80 80s36 80 80 80z" />
    <glyph glyph-name="equal" unicode="=" horiz-adv-x="708" 
d="M628 395h-548v115h548v-115zM628 150h-548v115h548v-115z" />
    <glyph glyph-name="greater" unicode="&#x3e;" horiz-adv-x="708" 
d="M628 387v-115l-548 -220v115l405 163l-405 162v115z" />
    <glyph glyph-name="greaterequal" unicode="&#x2265;" horiz-adv-x="708" 
d="M628 507v-115l-548 -200v115l390 143l-390 142v115zM80 115h548v-115h-548v115z" />
    <glyph glyph-name="infinity" unicode="&#x221e;" 
 />
    <glyph glyph-name="integral" unicode="&#x222b;" 
 />
    <glyph glyph-name="less" unicode="&#x3c;" horiz-adv-x="708" 
d="M628 492l-405 -162l405 -163v-115l-548 220v115l548 220v-115z" />
    <glyph glyph-name="lessequal" unicode="&#x2264;" horiz-adv-x="708" 
d="M628 592l-390 -142l390 -143v-115l-548 200v115l548 200v-115zM80 115h548v-115h-548v115z" />
    <glyph glyph-name="logicalnot" unicode="&#xac;" horiz-adv-x="708" 
d="M628 387v-312h-115v197h-433v115h548z" />
    <glyph glyph-name="minus" unicode="&#x2212;" horiz-adv-x="708" 
d="M628 271h-548v115h548v-115z" />
    <glyph glyph-name="multiply" unicode="&#xd7;" horiz-adv-x="708" 
d="M433 326l175 -176l-78 -79l-176 176l-176 -176l-78 79l176 176l-176 175l78 79l176 -176l176 176l78 -79z" />
    <glyph glyph-name="notequal" unicode="&#x2260;" horiz-adv-x="708" 
d="M459 395l-64 -130h233v-115h-289l-55 -112h-147l55 112h-112v115h168l64 130h-232v115h289l55 113h147l-55 -113h112v-115h-169z" />
    <glyph glyph-name="partialdiff" unicode="&#x2202;" 
 />
    <glyph glyph-name="percent" unicode="%" horiz-adv-x="1238" 
d="M294 755c129 0 194 -71 194 -200c0 -126 -65 -200 -194 -200c-130 0 -194 74 -194 200c0 129 64 200 194 200zM454 3h-149l470 740h149zM294 659c-51 0 -72 -29 -72 -104c0 -73 21 -104 72 -104c50 0 72 31 72 104c0 75 -22 104 -72 104zM944 390c129 0 194 -71 194 -200
c0 -126 -65 -200 -194 -200c-130 0 -194 74 -194 200c0 129 64 200 194 200zM944 294c-51 0 -72 -29 -72 -104c0 -73 21 -104 72 -104c50 0 72 31 72 104c0 75 -22 104 -72 104z" />
    <glyph glyph-name="perthousand" unicode="&#x2030;" horiz-adv-x="1698" 
d="M294 755c129 0 194 -71 194 -200c0 -126 -65 -200 -194 -200c-130 0 -194 74 -194 200c0 129 64 200 194 200zM454 3h-149l470 740h149zM294 659c-51 0 -72 -29 -72 -104c0 -73 21 -104 72 -104c50 0 72 31 72 104c0 75 -22 104 -72 104zM944 390c129 0 194 -71 194 -200
c0 -126 -65 -200 -194 -200c-130 0 -194 74 -194 200c0 129 64 200 194 200zM1404 390c129 0 194 -71 194 -200c0 -126 -65 -200 -194 -200c-130 0 -194 74 -194 200c0 129 64 200 194 200zM944 294c-51 0 -72 -29 -72 -104c0 -73 21 -104 72 -104c50 0 72 31 72 104
c0 75 -22 104 -72 104zM1404 294c-51 0 -72 -29 -72 -104c0 -73 21 -104 72 -104c50 0 72 31 72 104c0 75 -22 104 -72 104z" />
    <glyph glyph-name="plus" unicode="+" horiz-adv-x="708" 
d="M628 272h-216v-227h-115v227h-217v115h217v226h115v-226h216v-115z" />
    <glyph glyph-name="plusminus" unicode="&#xb1;" horiz-adv-x="708" 
d="M628 529v-115h-216v-227h-115v227h-217v115h217v226h115v-226h216zM80 114h548v-115h-548v115z" />
    <glyph glyph-name="product" unicode="&#x220f;" 
 />
    <glyph glyph-name="radical" unicode="&#x221a;" 
 />
    <glyph glyph-name="summation" unicode="&#x2211;" 
 />
    <glyph glyph-name="lozenge" unicode="&#x25ca;" 
 />
    <glyph glyph-name="ampersand" unicode="&#x26;" horiz-adv-x="816" 
d="M610 1l-47 50c-61 -36 -135 -61 -224 -61c-164 0 -289 60 -289 195c0 99 61 156 171 226c-41 44 -82 97 -82 175c0 76 61 169 217 169c152 0 218 -76 218 -163c0 -75 -58 -132 -151 -196l157 -166c22 24 40 50 52 73l105 -73c-17 -29 -40 -62 -69 -93l128 -136h-186z
M356 641c-48 0 -69 -31 -69 -59c0 -37 26 -70 53 -99c50 29 86 57 86 101c0 35 -27 57 -70 57zM341 107c47 0 93 15 133 37l-167 177c-76 -50 -110 -78 -110 -124c0 -62 59 -90 144 -90z" />
    <glyph glyph-name="asciicircum" unicode="^" horiz-adv-x="785" 
d="M393 559l-188 -374h-125l250 498h125l250 -498h-125z" />
    <glyph glyph-name="at" unicode="@" horiz-adv-x="1202" 
d="M606 740c291 1 496 -160 496 -419c0 -184 -83 -322 -257 -321c-75 1 -135 33 -161 99c-27 -56 -75 -99 -157 -99c-85 0 -187 48 -187 204c0 168 89 306 239 306c64 0 103 -26 125 -64l8 54h137l-39 -297c-10 -77 12 -103 50 -103c68 0 107 74 107 213
c0 195 -142 307 -361 307c-222 0 -371 -150 -371 -352c0 -215 103 -349 375 -349c36 0 69 5 100 10l29 -113c-38 -11 -75 -17 -124 -17c-278 0 -515 105 -515 469c0 273 226 473 506 472zM567 115c74 0 98 47 104 76c0 12 1 25 3 39l11 77c2 47 -12 88 -80 88
c-82 0 -124 -56 -124 -177c0 -76 33 -103 86 -103z" />
    <glyph glyph-name="bar" unicode="|" horiz-adv-x="530" 
d="M330 -118h-130v978h130v-978z" />
    <glyph glyph-name="brokenbar" unicode="&#xa6;" horiz-adv-x="530" 
d="M200 860h130v-398h-130v398zM330 -118h-130v422h130v-422z" />
    <glyph glyph-name="copyright" unicode="&#xa9;" horiz-adv-x="949" 
d="M475 740c206 0 374 -168 374 -374c0 -207 -168 -376 -374 -376c-207 0 -375 169 -375 376c0 206 168 374 375 374zM475 685c-173 0 -314 -143 -314 -319c0 -177 141 -321 314 -321c172 0 313 144 313 321c0 176 -141 319 -313 319zM492 560c37 0 78 -5 110 -13l-12 -87
c-24 8 -62 12 -89 12c-66 0 -105 -35 -105 -112c0 -75 37 -108 99 -110c30 0 63 2 97 14l13 -84c-25 -11 -69 -18 -111 -18c-132 0 -204 73 -204 200c0 128 73 198 202 198z" />
    <glyph glyph-name="dagger" unicode="&#x2020;" horiz-adv-x="615" 
d="M515 470h-136v-670h-142v670h-137v118h137v152h142v-152h136v-118z" />
    <glyph glyph-name="daggerdbl" unicode="&#x2021;" horiz-adv-x="615" 
d="M379 470v-400h136v-118h-136v-152h-142v152h-137v118h137v400h-137v118h137v152h142v-152h136v-118h-136z" />
    <glyph glyph-name="degree" unicode="&#xb0;" horiz-adv-x="508" 
d="M254 755c96 0 174 -75 174 -169s-78 -169 -174 -169s-174 75 -174 169s78 169 174 169zM254 663c-42 0 -76 -35 -76 -77s34 -77 76 -77s76 35 76 77s-34 77 -76 77z" />
    <glyph glyph-name="paragraph" unicode="&#xb6;" horiz-adv-x="860" 
d="M760 740v-740h-142v622h-100v-622h-142v242h-28c-196 0 -288 80 -288 249s92 249 288 249h412zM376 622h-28c-95 0 -140 -42 -140 -131s45 -131 140 -131h28v262z" />
    <glyph glyph-name="registered" unicode="&#xae;" horiz-adv-x="949" 
d="M475 740c206 0 374 -168 374 -374c0 -207 -168 -376 -374 -376c-207 0 -375 169 -375 376c0 206 168 374 375 374zM475 45c172 0 313 144 313 321c0 176 -141 319 -313 319c-173 0 -314 -143 -314 -319c0 -177 141 -321 314 -321zM640 434c0 -53 -20 -95 -77 -113
l74 -143h-82l-68 133h-85v-133h-76v380h163c114 0 151 -51 151 -124zM402 374h87c47 0 71 20 71 60c0 41 -24 60 -71 60h-87v-120z" />
    <glyph glyph-name="section" unicode="&#xa7;" 
 />
    <glyph glyph-name="trademark" unicode="&#x2122;" horiz-adv-x="1009" 
d="M435 638h-104v-268h-127v268h-104v102h335v-102zM909 370h-117v152l-67 -105h-39l-68 105v-152h-116v370h116l87 -157l87 157h117v-370z" />
    <glyph glyph-name="acute" unicode="&#xb4;" horiz-adv-x="352" 
d="M72 530l-22 26c27 34 117 146 152 175c24 21 53 39 85 1c31 -37 9 -63 -16 -83c-34 -29 -160 -99 -199 -119z" />
    <glyph glyph-name="breve" unicode="&#x2d8;" horiz-adv-x="521" 
d="M390 726h81c0 -124 -98 -177 -210 -177c-113 0 -211 53 -211 177h81c0 -58 60 -91 130 -91c69 0 129 33 129 91z" />
    <glyph glyph-name="caron" unicode="&#x2c7;" horiz-adv-x="547" 
d="M504 676l-197 -103h-60l-197 103l40 57l188 -71l186 71z" />
    <glyph glyph-name="cedilla" unicode="&#xb8;" horiz-adv-x="316" 
d="M220 0l-17 -33c38 -10 63 -36 63 -76c0 -47 -37 -91 -111 -91c-46 0 -89 21 -105 38l27 52c20 -11 45 -18 63 -18c20 0 35 11 35 32c0 22 -19 34 -50 34l-8 10l28 52h75z" />
    <glyph glyph-name="circumflex" unicode="&#x2c6;" horiz-adv-x="554" 
d="M278 627l-188 -71l-40 57l197 103h60l197 -103l-40 -57z" />
    <glyph glyph-name="dieresis" unicode="&#xa8;" horiz-adv-x="510" 
d="M130 725c44 0 80 -36 80 -80s-36 -80 -80 -80s-80 36 -80 80s36 80 80 80zM380 725c44 0 80 -36 80 -80s-36 -80 -80 -80s-80 36 -80 80s36 80 80 80z" />
    <glyph glyph-name="dotaccent" unicode="&#x2d9;" horiz-adv-x="260" 
d="M130 725c44 0 80 -36 80 -80s-36 -80 -80 -80s-80 36 -80 80s36 80 80 80z" />
    <glyph glyph-name="grave" unicode="`" horiz-adv-x="352" 
d="M302 556l-22 -26c-39 20 -165 90 -199 119c-25 20 -47 46 -16 83c32 38 61 20 85 -1c35 -29 125 -141 152 -175z" />
    <glyph glyph-name="hungarumlaut" unicode="&#x2dd;" horiz-adv-x="500" 
d="M80 522l-30 17c14 41 60 177 83 216c15 28 36 55 80 31c41 -25 30 -57 13 -84c-22 -39 -117 -148 -146 -180zM289 522l-30 17c14 41 60 177 83 216c15 28 36 55 80 31c41 -25 30 -57 13 -84c-22 -39 -117 -148 -146 -180z" />
    <glyph glyph-name="macron" unicode="&#xaf;" horiz-adv-x="449" 
d="M399 568h-349v92h349v-92z" />
    <glyph glyph-name="ogonek" unicode="&#x2db;" horiz-adv-x="313" 
d="M247 -124l16 -55c-16 -7 -47 -21 -99 -21c-54 0 -114 22 -114 94c0 57 55 91 86 106h69c-18 -15 -55 -49 -55 -90c0 -31 23 -44 51 -44c22 0 39 7 46 10z" />
    <glyph glyph-name="ring" unicode="&#x2da;" horiz-adv-x="359" 
d="M180 809c71 0 129 -58 129 -129c0 -72 -58 -130 -129 -130c-72 0 -130 58 -130 130c0 71 58 129 130 129zM180 733c-29 0 -52 -24 -52 -53c0 -30 23 -54 52 -54c28 0 51 24 51 54c0 29 -23 53 -51 53z" />
    <glyph glyph-name="tilde" unicode="&#x2dc;" horiz-adv-x="556" 
d="M186 700c57 0 133 -39 183 -39c43 0 74 18 93 33l44 -56c-38 -38 -88 -69 -136 -69c-57 0 -133 39 -183 39c-43 0 -74 -18 -93 -33l-44 56c38 38 88 69 136 69z" />
    </font>
</defs>
</svg>
